<svg width="414" height="414" viewBox="0 0 414 414" fill="none" xmlns="http://www.w3.org/2000/svg">
<path d="M192.088 90.6322C195.976 75.1122 218.008 75.1122 221.912 90.6322L223.048 95.2082C223.713 97.8675 225.077 100.3 226.999 102.255C228.921 104.209 231.331 105.613 233.979 106.322C236.627 107.03 239.417 107.017 242.058 106.284C244.699 105.551 247.096 104.124 249 102.152L252.28 98.7762C263.4 87.2722 282.488 98.2962 278.088 113.672L276.808 118.216C276.054 120.851 276.019 123.639 276.706 126.291C277.393 128.944 278.777 131.364 280.714 133.302C282.652 135.239 285.072 136.623 287.725 137.31C290.378 137.997 293.166 137.962 295.8 137.208L300.328 135.912C315.688 131.512 326.728 150.6 315.224 161.72L311.848 165C309.876 166.904 308.449 169.301 307.716 171.942C306.983 174.584 306.97 177.373 307.678 180.021C308.387 182.669 309.791 185.079 311.745 187.001C313.7 188.923 316.133 190.288 318.792 190.952L323.368 192.088C338.888 195.976 338.888 218.008 323.368 221.912L318.792 223.048C316.133 223.713 313.7 225.077 311.745 226.999C309.791 228.921 308.387 231.332 307.678 233.98C306.97 236.628 306.983 239.417 307.716 242.058C308.449 244.699 309.876 247.096 311.848 249L315.224 252.28C326.728 263.4 315.704 282.488 300.328 278.088L295.784 276.808C293.15 276.055 290.362 276.019 287.709 276.706C285.056 277.393 282.636 278.777 280.698 280.715C278.761 282.652 277.377 285.073 276.69 287.725C276.003 290.378 276.038 293.166 276.792 295.8L278.088 300.328C282.488 315.688 263.4 326.728 252.28 315.224L249 311.848C247.096 309.876 244.699 308.45 242.058 307.716C239.417 306.983 236.627 306.97 233.979 307.679C231.331 308.387 228.921 309.791 226.999 311.746C225.077 313.7 223.713 316.133 223.048 318.792L221.912 323.368C218.024 338.888 195.992 338.888 192.088 323.368L190.952 318.792C190.287 316.133 188.923 313.7 187.001 311.746C185.079 309.791 182.669 308.387 180.021 307.679C177.373 306.97 174.583 306.983 171.942 307.716C169.301 308.45 166.904 309.876 165 311.848L161.72 315.224C150.6 326.728 131.512 315.704 135.912 300.328L137.192 295.784C137.944 293.151 137.979 290.366 137.292 287.715C136.606 285.064 135.224 282.645 133.289 280.708C131.353 278.771 128.935 277.387 126.285 276.698C123.635 276.01 120.849 276.042 118.216 276.792L113.672 278.088C98.3119 282.488 87.2719 263.4 98.7759 252.28L102.152 249C104.124 247.096 105.551 244.699 106.284 242.058C107.017 239.417 107.03 236.628 106.321 233.98C105.613 231.332 104.209 228.921 102.254 226.999C100.3 225.077 97.8673 223.713 95.2079 223.048L90.6319 221.912C75.1119 218.024 75.1119 195.992 90.6319 192.088L95.2079 190.952C97.8673 190.288 100.3 188.923 102.254 187.001C104.209 185.079 105.613 182.669 106.321 180.021C107.03 177.373 107.017 174.584 106.284 171.942C105.551 169.301 104.124 166.904 102.152 165L98.7759 161.72C87.2719 150.6 98.2959 131.512 113.672 135.912L118.216 137.192C120.849 137.944 123.635 137.979 126.285 137.293C128.936 136.606 131.355 135.224 133.292 133.289C135.229 131.354 136.613 128.936 137.302 126.286C137.99 123.636 137.958 120.85 137.208 118.216L135.912 113.672C131.512 98.3122 150.6 87.2722 161.72 98.7762L165 102.152C166.904 104.124 169.301 105.551 171.942 106.284C174.583 107.017 177.373 107.03 180.021 106.322C182.669 105.613 185.079 104.209 187.001 102.255C188.923 100.3 190.287 97.8675 190.952 95.2082L192.088 90.6322ZM286.568 215H211L165.656 275.464C177.206 282.44 190.333 286.38 203.816 286.918C217.299 287.455 230.698 284.572 242.766 278.537C254.835 272.502 265.18 263.511 272.839 252.402C280.497 241.293 285.22 228.426 286.568 215ZM286.568 199C285.22 185.574 280.497 172.708 272.839 161.599C265.18 150.489 254.835 141.499 242.766 135.464C230.698 129.429 217.299 126.546 203.816 127.083C190.333 127.62 177.206 131.56 165.656 138.536L211 199.016H286.568V199ZM159.768 142.472C159.288 142.808 158.84 143.16 158.376 143.512L159.768 142.472ZM152.872 148.152C144.718 155.632 138.209 164.726 133.761 174.858C129.312 184.989 127.021 195.935 127.032 207C127.032 230.28 136.984 251.24 152.872 265.848L197 207L152.872 148.152Z" fill="#FF8700"/>
</svg>
