<svg width="90" height="90" viewBox="0 0 90 90" fill="none" xmlns="http://www.w3.org/2000/svg">
<path fill-rule="evenodd" clip-rule="evenodd" d="M67.8435 0.472287C63.4574 0.981791 59.144 3.09758 56.0213 6.27133L55.067 7.24132H35.3338H15.6009V32.7216V58.202L19.1777 54.6407C23.4669 50.3702 24.1845 49.967 25.7114 50.9674L26.1136 51.2311L13.6029 63.7425C2.22233 75.1237 1.11132 76.2764 1.30309 76.508C1.79012 77.095 3.2699 77.3488 4.19624 77.0047C4.42487 76.9195 7.0841 74.3812 10.1062 71.3631L15.6009 65.8762V67.7562C15.6009 68.7901 15.6497 69.6361 15.71 69.6361C15.7699 69.6361 20.1674 65.2947 25.4822 59.9888C35.3123 50.175 35.6183 49.8991 37.0251 49.5838C37.7108 49.4301 38.6603 49.5914 38.8469 49.8932C38.903 49.9839 30.5721 58.4259 19.5076 69.4907C5.71849 83.2801 0.0950104 88.9955 0.157249 89.1578C0.278507 89.4738 1.36917 89.7411 2.09457 89.6324C3.68854 89.3932 3.88117 89.2291 11.5475 81.5753L18.779 74.3563H21.4281H24.0772L29.6849 68.7576C35.4027 63.0495 35.818 62.6995 36.8738 62.7065C37.3858 62.7103 38.6115 63.1973 38.6115 63.397C38.6115 63.4621 33.0028 69.1238 26.1476 75.9787C19.292 82.8336 13.6832 88.4908 13.6832 88.5503C13.6832 88.8134 14.9727 89.2966 15.6747 89.2966C16.9367 89.2966 17.242 89.0346 24.7456 81.5203L31.8989 74.3563H57.3073H82.7157V54.873V35.3901L84.0065 34.1031C93.101 25.036 91.3186 9.80261 80.3916 3.21413C76.6334 0.947555 72.1621 -0.0292199 67.8435 0.472287ZM72.7769 4.07381C84.7327 6.12823 90.3882 20.1251 83.1456 29.736C73.7444 42.2111 54.0302 35.6691 54.0302 20.0742C54.0302 9.9867 62.9385 2.38336 72.7769 4.07381Z" fill="#5D5FEF"/>
</svg>

