<svg width="400" height="400" viewBox="0 0 400 400" fill="none" xmlns="http://www.w3.org/2000/svg">
<g clip-path="url(#clip0_810_885)">
<path fill-rule="evenodd" clip-rule="evenodd" d="M266.147 71.3552C253.476 72.8271 241.015 78.9394 231.994 88.108L229.237 90.9102H172.23L115.224 90.9102V164.52L115.224 238.13L125.557 227.842C137.948 215.505 140.021 214.34 144.432 217.23L145.594 217.992L109.452 254.136C76.5747 287.015 73.3651 290.345 73.9191 291.014C75.3261 292.71 79.601 293.443 82.2771 292.449C82.9376 292.203 90.6198 284.87 99.3503 276.151L115.224 260.3V265.731C115.224 268.718 115.365 271.162 115.539 271.162C115.712 271.162 128.416 258.62 143.77 243.292C172.168 214.941 173.052 214.144 177.116 213.233C179.097 212.789 181.84 213.255 182.379 214.127C182.541 214.389 158.474 238.777 126.51 270.742C86.6747 310.578 70.4291 327.089 70.6089 327.558C70.9592 328.471 74.11 329.243 76.2056 328.929C80.8104 328.238 81.3669 327.764 103.514 305.653L124.405 284.798H132.058H139.711L155.911 268.624C172.429 252.134 173.629 251.123 176.679 251.143C178.158 251.154 181.699 252.561 181.699 253.138C181.699 253.326 165.496 269.682 145.692 289.485C125.887 309.288 109.684 325.631 109.684 325.803C109.684 326.563 113.409 327.959 115.437 327.959C119.083 327.959 119.965 327.202 141.642 305.494L162.307 284.798H235.709H309.111V228.513V172.229L312.84 168.511C339.113 142.317 333.964 98.3095 302.397 79.2761C291.54 72.7282 278.623 69.9064 266.147 71.3552ZM280.399 81.7596C314.938 87.6946 331.276 128.13 310.353 155.895C283.194 191.934 226.242 173.035 226.242 127.983C226.242 98.8413 251.977 76.8761 280.399 81.7596Z" fill="#5D5FEF"/>
</g>
<defs>
<clipPath id="clip0_810_885">
<rect width="400" height="400" rx="65" fill="white"/>
</clipPath>
</defs>
</svg>
